<svg xmlns="http://www.w3.org/2000/svg" viewBox="0 0 64 64" role="img" aria-label="Maaş Hesaplama">
  <defs>
    <linearGradient id="mh-bg" x1="0" y1="0" x2="64" y2="64" gradientUnits="userSpaceOnUse">
      <stop offset="0" stop-color="#16a98a"/>
      <stop offset=".55" stop-color="#0e7c66"/>
      <stop offset="1" stop-color="#064639"/>
    </linearGradient>
    <linearGradient id="mh-note" x1="10" y1="18" x2="54" y2="46" gradientUnits="userSpaceOnUse">
      <stop offset="0" stop-color="#ffffff"/>
      <stop offset="1" stop-color="#dff2ec"/>
    </linearGradient>
    <linearGradient id="mh-coin" x1="24" y1="24" x2="40" y2="42" gradientUnits="userSpaceOnUse">
      <stop offset="0" stop-color="#ffe3a1"/>
      <stop offset="1" stop-color="#f5b93e"/>
    </linearGradient>
  </defs>
  <rect width="64" height="64" rx="15" fill="url(#mh-bg)"/>
  <rect x="13" y="21" width="38" height="24" rx="4.5" fill="#0a5f4e" opacity=".55" transform="translate(2.5 3)"/>
  <rect x="13" y="21" width="38" height="24" rx="4.5" fill="url(#mh-note)" stroke="#064639" stroke-width="1.6"/>
  <path d="M17 25a4 4 0 0 1-4 4v8a4 4 0 0 1 4 4zM47 25a4 4 0 0 0 4 4v8a4 4 0 0 0-4 4z" fill="#0e7c66" opacity=".25"/>
  <circle cx="32" cy="33" r="8.6" fill="url(#mh-coin)" stroke="#064639" stroke-width="1.5"/>
  <path d="M29.9 28.4v6.2c0 1.9 1.2 3.1 3.1 3.1 1.6 0 2.8-.9 3.1-2.6l-1.6-.4c-.2.8-.7 1.3-1.5 1.3-.9 0-1.4-.6-1.4-1.5v-6.1zM28.1 31.2l5.1-2v1.5l-5.1 2zm0 2.6 5.1-2v1.5l-5.1 2z" fill="#064639"/>
  <g fill="#ffd479">
    <rect x="16" y="52" width="7" height="5" rx="1.5"/>
    <rect x="26" y="49" width="7" height="8" rx="1.5"/>
    <rect x="36" y="45.5" width="7" height="11.5" rx="1.5" opacity=".9"/>
    <path d="M45.5 44l4.8-4.8m0 0h-3.6m3.6 0v3.6" stroke="#ffd479" stroke-width="2.4" stroke-linecap="round" stroke-linejoin="round" fill="none"/>
  </g>
</svg>
